<svg width="1503" height="369" viewBox="0 0 1503 369" fill="none" xmlns="http://www.w3.org/2000/svg">
<path d="M1237.4 91.9333L1237 117.667L1200.2 118.067L1163.4 118.333L1151.27 154.733C1144.6 174.6 1136.6 199.4 1133.53 209.667C1120.33 254.733 1103.27 288.733 1084.47 307.533C1074.47 317.533 1065 322.467 1054.33 323.4C1047 323.933 1045.8 323.667 1042.07 320.467C1036.33 315.667 1034.47 306.867 1035.4 290.467C1036.6 268.333 1044.33 237.8 1063.4 178.067C1068.33 162.867 1072.33 148.467 1072.33 146.2C1072.33 135.267 1066.47 125.933 1056.47 121.267C1052.2 119.267 1045.4 119 987.667 119C915.8 119 915.8 119 895.667 129C869.8 141.667 850.333 165.533 842.867 193.667C838.733 208.733 838.733 237.133 842.733 251.8C852.467 288.067 880.6 315.8 916.867 325C931.133 328.6 954.6 328.733 968.6 325.133C981.4 321.8 993.267 316.333 1004.73 308.6C1009.67 305.133 1013.93 302.333 1014.33 302.333C1014.73 302.333 1015 303.4 1015 304.6C1015 305.933 1016.73 310.067 1019 313.8C1024.47 323.533 1032.87 327.667 1047.27 327.667C1060.2 327.667 1069.53 324.333 1080.73 315.8C1090.73 308.067 1104.2 290.733 1112.87 274.467C1116.33 267.8 1119.4 262.333 1119.53 262.333C1119.8 262.333 1119.4 265.133 1118.87 268.6C1115.27 290.2 1119.4 312.2 1128.6 320.467C1136.2 327.533 1137.53 327.667 1177.8 327.667C1212.87 327.667 1215.93 327.533 1221 325C1228.07 321.533 1231.67 315.4 1230.73 308.2C1229.8 302.333 1214.6 265.133 1189 207.133L1171.53 167.4L1178.33 149.133L1185.13 131H1211.13H1237L1237.67 218.333L1238.33 305.667L1242.07 313.267C1245.13 319.533 1246.87 321.4 1252.07 323.933C1258.2 327 1259.27 327 1304.73 327.4L1351 327.8V321.8V315.933L1310.07 315.4C1272.2 315 1268.6 314.733 1263.8 312.333C1255.8 308.333 1253.53 304.2 1252.2 291.533C1251.53 285.4 1251.13 246.733 1251.27 205.667L1251.67 131L1301.4 130.6L1351 130.333V124.333V118.333L1301.4 118.067L1251.67 117.667L1251.27 91.9333L1251 66.3333H1244.33H1237.67L1237.4 91.9333ZM1045.27 125.267C1050.2 128.067 1051.53 131.4 1050.33 138.067C1049.8 140.867 1044.07 159.533 1037.4 179.667C1030.87 199.8 1022.73 226.733 1019.53 239.533C1014.07 261.4 1013 264.867 1011.8 263.533C1010.2 261.667 961.533 145.933 962.2 145.4C963.533 144.067 976.867 149.133 985.667 154.333C990.467 157.133 999.533 163.4 1006.07 168.2C1012.47 173 1017.93 177 1018.2 177C1018.6 177 1022.2 172.733 1026.33 167.4L1033.8 157.933L1030.07 154.733C1022.07 148.067 999.4 133.533 988.467 128.067L977 122.333L1009 122.6C1036.47 123 1041.67 123.267 1045.27 125.267ZM955.533 143.667C955.933 144.067 968.2 172.467 982.867 206.867L1009.67 269.4L1004.73 275.4C982.2 303 940.333 311.533 907.267 295.4C896.467 290.067 878.733 273.133 873.267 262.733C864.733 246.733 861.8 219.933 866.467 201.133C873 174.6 897.533 150.333 923 145.133C927 144.333 931.533 143.4 933 143.133C936.467 142.333 954.6 142.867 955.533 143.667ZM1185.67 208.867C1212.2 269.4 1227 305.667 1227 310.2C1227 314.733 1223.93 319.133 1219 321.667C1215.93 323.267 1209.53 323.667 1188.6 323.667C1163.13 323.667 1161.93 323.533 1157.53 320.6C1155 319 1151.53 314.867 1149.67 311.667C1146.87 306.467 1146.33 303.533 1145.93 289.667C1145.13 267 1149.13 244.2 1161 203C1168.07 178.6 1169.4 174.867 1170.87 176.467C1171.4 177.133 1178.07 191.667 1185.67 208.867Z" fill="black"/>
<path d="M215 197.667V327.667H227H239V267.267C239 232.333 239.667 204.6 240.333 201.267C241.133 198.067 243 192.733 244.6 189.267C248.733 180.467 263.267 166.333 272.6 161.8C287.533 154.867 308.2 154.867 322.6 161.8C331.8 166.2 343.267 178.733 347.267 188.6C350.333 196.333 350.333 196.733 350.733 262.6L351.133 329H363.133H375V305.667C375 292.867 375.533 282.333 376.2 282.333C376.867 282.333 381.267 284.2 385.933 286.333C394.333 290.2 409.533 294.2 416.333 294.333C418.733 294.333 420.467 295.667 422.6 299.4C429.267 311.133 445.4 325.533 460.333 333C477.4 341.667 499.4 345 521.667 342.467C566.6 337.133 598.867 310.6 617.8 263.267C619.4 259.533 622.6 248.733 624.867 239.533L629 222.6L635.533 217.667C639 215 642.067 213 642.333 213.267C642.467 213.533 639.133 238.867 634.867 269.667C630.6 300.467 627.133 326.067 627 326.6C627 327.267 631.4 327.667 636.867 327.667H646.733L647.533 322.6C647.933 319.933 649.8 305 651.667 289.667C655.4 258.333 658.2 246.467 665 233.133C670.333 222.333 682.2 209 691.667 203C705.667 193.933 729 188.333 748.333 189.267L757 189.667V239.667V289.667L748.067 290.067L739 290.467V299V307.667H757H775V318.333V329H788.333H801.667V323C801.667 317 801.667 317 806.333 317C810.733 317 811 316.733 811 312.333C811 307.933 811.267 307.667 815.667 307.667C820.067 307.667 820.333 307.4 820.333 303V298.333H829.667H839V294.333V290.333L816.067 290.067L793 289.667V239.667V189.667L811.4 190.067L829.667 190.6V185.8C829.667 181.267 829.933 181 834.333 181C838.6 181 839 180.6 839 177.267V173.4L824.733 172.6C817 172.067 806.467 171.667 801.4 171.667H792.333V144.333V117H788.333C784.6 117 784.333 117.4 784.333 121.667C784.333 126.067 784.067 126.333 779.667 126.333C775.267 126.333 775 126.6 775 131C775 135.4 774.733 135.667 770.333 135.667C765.933 135.667 765.667 135.933 765.667 140.333C765.667 144.6 765.4 145 761.667 145H757.667V158.2V171.267L740.067 172.067C730.333 172.467 719 173.533 715 174.333C697.267 178.2 681.133 189.933 667.933 208.333L661.4 217.667L662.2 211.667C662.6 208.333 663.4 197.133 663.933 186.733C664.6 170.467 664.467 166.867 662.333 161.533C657 147.533 645.133 139.667 629 139.667H619.667L615.667 131.933C607.8 116.867 589.133 102.067 571.8 97.5333C562.6 95 539.667 95.1333 527.933 97.8C522.6 99 514.6 101.933 510.067 104.467C502.333 108.6 501.133 108.867 493.267 108.067C464.867 105.4 434.467 130.067 418.6 168.467L414.333 178.733L404.333 182.733C398.867 185 390.2 189.4 385.133 192.6C380.2 195.8 375.933 198.333 375.667 198.067C375.533 197.8 374.6 193.8 373.667 189.133C368.067 162.333 346.067 139.533 320.6 134.2C309.667 131.933 287 133.267 277 136.867C266.6 140.6 254.067 148.867 246.333 157.133C243 160.733 239.933 163.667 239.667 163.667C239.267 163.667 239 142.067 239 115.667V67.6666H227H215V197.667ZM499.933 114.6C502.2 116.733 503 118.867 503 123.267C503 138.867 489.8 152.2 462.867 163.933C450.867 169.133 431.267 175.133 430.2 173.933C429.267 173 438.2 154.2 443.667 145.667C449.533 136.467 461.667 123.4 467.933 119.533C480.2 111.933 494.733 109.667 499.933 114.6ZM542.067 113.667C552.6 115 571.133 125.4 582.867 136.467L593 145.933L584.733 154.733C571.933 168.467 568.2 178.6 560.467 221.667C554.333 255.933 555.8 252.867 540.733 259.933C519.667 269.8 486.2 280.867 461.267 286.467L453.533 288.067L449.267 283.933C439 273.933 431 255.133 427.533 233C425.667 220.067 425 196.2 426.467 187.4L427.267 182.6L446.867 179C499.4 169.133 519 157.133 519 134.467C519 127.133 517.667 123.533 513.267 118.733C511.8 117 510.867 115.4 511.133 115.133C512.2 114.067 528.733 112.067 532.333 112.467C534.2 112.733 538.6 113.267 542.067 113.667ZM635.933 152.867C643.667 156.467 646.2 160.733 645.4 168.867C644.067 182.6 632.467 199.267 612.6 215.8C596.2 229.533 561.4 251.933 559.533 249.933C559.133 249.667 561.667 240.067 565 228.867C578.467 184.2 596.6 157.8 617.667 152.2C626.067 149.933 629.533 150.067 635.933 152.867ZM408.867 198.467C407.8 203.933 406.467 218.067 406.067 229.933C405.267 253.933 406.467 262.067 413.8 280.733C415.933 286.067 417.667 290.6 417.667 291C417.667 293.667 389.533 284.867 381.4 279.8L375 275.667V241.8V207.933L380.733 203C383.8 200.333 388.733 196.867 391.667 195.4C397.133 192.467 410.067 187.667 410.6 188.2C410.867 188.333 410.067 193 408.867 198.467ZM619.667 235.933C611.267 265.8 590.6 296.733 570.2 309.8C547.933 324.067 519.133 326.733 493.8 317C483 312.867 465.8 302.2 460.467 296.467C456.867 292.6 456.6 292.867 468.333 290.333C480.067 287.667 511.533 277.667 530.867 270.467C540.733 266.733 549.267 263.667 549.933 263.667C552.733 263.667 541.667 280.867 532.467 290.867C524.2 299.8 523.8 300.467 530.2 294.333C538.467 286.467 547.667 274.467 552.2 265.267C553.8 262.2 555.667 259.667 556.6 259.667C558.867 259.667 594.333 242.067 608.333 233.933C615.267 229.933 621.267 226.733 621.533 227.133C621.8 227.4 621 231.4 619.667 235.933Z" fill="black"/>
<path d="M1409.67 91.6667V105H1405.67C1402.33 105 1401.67 104.467 1401.67 101.667C1401.67 99 1401 98.3334 1398.33 98.3334C1395.67 98.3334 1395 97.6667 1395 95C1395 91.9334 1394.47 91.6667 1389 91.6667H1383V97.5334C1383 102.733 1383.4 103.533 1386.07 103.933C1387.93 104.2 1389.13 105.4 1389.4 107.267C1389.8 109.533 1390.73 110.333 1393.13 110.333C1395.8 110.333 1396.33 111 1396.33 114.333V118.333H1383H1369.67V124.333V130.333H1383H1396.33V134.333C1396.33 137.667 1395.8 138.333 1393 138.333C1390.33 138.333 1389.67 139 1389.67 141.667C1389.67 144.333 1389 145 1386.33 145C1383.27 145 1383 145.533 1383 151V157H1388.87C1394.07 157 1394.87 156.6 1395.27 153.933C1395.53 152.067 1396.73 150.867 1398.6 150.6C1400.47 150.333 1401.67 149.133 1401.93 147.267C1402.2 145.133 1403.4 144.2 1406.07 143.933L1409.67 143.533V156.867V170.333H1415.67H1421.53L1421.93 157.267L1422.33 144.333L1426.07 143.933C1429.13 143.533 1429.67 143.933 1429.67 146.867C1429.67 149.667 1430.33 150.333 1433 150.333C1435.67 150.333 1436.33 151 1436.33 153.667C1436.33 156.733 1436.73 157 1443 157H1449.67V151C1449.67 145.533 1449.4 145 1446.33 145C1443.67 145 1443 144.333 1443 141.8C1443 139.267 1442.2 138.467 1439.4 138.067C1436.47 137.8 1435.67 137 1435.67 134.333C1435.67 131 1435.8 131 1449.4 130.6L1463 130.2V124.333V118.467L1449.4 118.067C1435.8 117.667 1435.67 117.667 1435.67 114.333C1435.67 111.667 1436.47 110.867 1439.4 110.6C1442.2 110.2 1443 109.4 1443 106.867C1443 104.333 1443.67 103.667 1446.33 103.667C1449.4 103.667 1449.67 103.133 1449.67 97.6667V91.6667H1443C1436.73 91.6667 1436.33 91.9334 1436.33 95C1436.33 97.6667 1435.67 98.3334 1433 98.3334C1430.33 98.3334 1429.67 99 1429.67 101.8C1429.67 104.733 1429.13 105.133 1426.07 104.733L1422.33 104.333L1421.93 91.2667L1421.53 78.3334H1415.67H1409.67V91.6667Z" fill="black"/>
<path d="M102.067 120.333C83.9333 124.333 65.4 137.8 58.3333 152.2C53.4 162.2 51.4 176.2 53.5333 185.267C59.5333 211.4 79.1333 223.933 131 235C157.667 240.733 174.2 249.133 179.667 259.8C182.467 265.133 182.2 276.067 179 282.2C172.6 294.733 157.933 302.2 137.667 303.267C122.2 304.2 112.6 302.333 100.467 296.2C90.2 291.133 77.6666 278.733 72.8666 269.267L70.0666 263.8L58.6 269.267L47.1333 274.733L51.2666 282.867C60.2 299.8 80.0666 315.667 102.067 323.267C115 327.8 141.933 329.133 155 325.8C175.933 320.6 195.8 306.2 203 291C207.4 281.667 208.333 263.933 204.867 254.467C197.8 234.867 176.733 220.6 143 212.733C110.733 205.133 104.333 203.4 96.7333 199.667C92.2 197.4 86.7333 193.533 84.4666 191C71.9333 176.733 78.8666 156.333 99.2666 146.867C106.867 143.4 109 143 121.8 143C135.267 143 136.2 143.133 145.933 147.933C157.8 153.8 169.8 165.667 175 176.733C176.867 180.6 178.867 183.4 179.667 183.133C180.333 182.867 185.267 181 190.333 179C195.533 176.867 200.2 174.867 200.867 174.2C203.267 172.067 191.8 153.8 181.667 143.667C160.6 122.6 131.267 114.067 102.067 120.333Z" fill="black"/>
</svg>
