<svg width="354" height="34" viewBox="0 0 354 34" fill="none" xmlns="http://www.w3.org/2000/svg">
<path d="M0 0.892265C1.19975 0.610497 2.49421 0.422651 3.88339 0.328728C5.27256 0.234806 6.64596 0.187846 8.00356 0.187846C9.45589 0.187846 10.924 0.328729 12.4079 0.610495C13.9234 0.892263 15.2968 1.40884 16.5281 2.16022C17.7594 2.9116 18.7539 3.94475 19.5116 5.25967C20.3009 6.57458 20.6956 8.24954 20.6956 10.2845C20.6956 12.2882 20.3325 13.9788 19.6064 15.3564C18.8802 16.7339 17.9172 17.861 16.7175 18.7376C15.5178 19.5829 14.1444 20.1934 12.5973 20.5691C11.0503 20.9447 9.45589 21.1326 7.81413 21.1326C7.65627 21.1326 7.3879 21.1326 7.00904 21.1326C6.66174 21.1326 6.28288 21.1326 5.87244 21.1326C5.49357 21.1013 5.1147 21.07 4.73584 21.0387C4.35697 21.0074 4.08861 20.9761 3.93074 20.9447V33.4365H0V0.892265ZM8.09828 3.56906C7.2774 3.56906 6.4881 3.58471 5.73036 3.61602C4.97263 3.64733 4.37276 3.7256 3.93074 3.85083V17.4696C4.08861 17.5322 4.34118 17.5792 4.68848 17.6105C5.03577 17.6105 5.39885 17.6262 5.77772 17.6575C6.15659 17.6575 6.51967 17.6575 6.86696 17.6575C7.21426 17.6575 7.46684 17.6575 7.6247 17.6575C8.69815 17.6575 9.75582 17.5635 10.7977 17.3757C11.8712 17.1565 12.8341 16.7808 13.6866 16.2486C14.539 15.7164 15.2178 14.965 15.723 13.9945C16.2597 13.0239 16.5281 11.7873 16.5281 10.2845C16.5281 9.00092 16.2755 7.93646 15.7703 7.09116C15.2968 6.21455 14.6495 5.52578 13.8286 5.02486C13.0393 4.49263 12.1395 4.11694 11.1292 3.89779C10.1189 3.67864 9.10859 3.56906 8.09828 3.56906Z" fill="black"/>
<path d="M43.125 24.326H30.3856L27.3546 33.4365H23.4712L34.5531 0.563534H39.1942L50.3708 33.4365H46.2506L43.125 24.326ZM31.6169 20.9447H42.0357L37.1578 5.49447H36.5895L31.6169 20.9447Z" fill="black"/>
<path d="M57.2666 28.7873C58.2138 29.2882 59.2715 29.7109 60.4396 30.0552C61.6394 30.3683 62.8391 30.5249 64.0389 30.5249C65.0807 30.5249 66.0595 30.4309 66.9751 30.2431C67.8907 30.0239 68.68 29.6952 69.343 29.2569C70.0376 28.7873 70.5743 28.2081 70.9532 27.5193C71.3636 26.8306 71.5688 26.0166 71.5688 25.0773C71.5688 23.7937 71.1268 22.7449 70.2428 21.9309C69.3904 21.1169 68.3169 20.3969 67.0224 19.7707C65.728 19.1446 64.323 18.5341 62.8075 17.9392C61.2921 17.3444 59.8871 16.64 58.5926 15.826C57.2982 15.012 56.2089 14.0258 55.3249 12.8674C54.4725 11.6777 54.0462 10.175 54.0462 8.35911C54.0462 7.0755 54.2988 5.91713 54.804 4.88398C55.3407 3.85083 56.0827 2.97422 57.0298 2.25414C57.977 1.53407 59.1136 0.986186 60.4396 0.610495C61.7972 0.203498 63.2969 0 64.9387 0C66.833 0 68.5537 0.140884 70.1007 0.422652C71.6478 0.673111 72.8791 1.01749 73.7947 1.4558L73.8894 1.40884V1.50276H73.9368L73.8894 1.64364V9.15746H70.3849V4.1326C69.5956 3.94475 68.7273 3.78821 67.7802 3.66298C66.833 3.53775 65.8227 3.47514 64.7492 3.47514C63.7074 3.47514 62.7602 3.60037 61.9077 3.85083C61.0869 4.10129 60.3765 4.44567 59.7766 4.88398C59.2083 5.29097 58.7663 5.77624 58.4506 6.33978C58.1349 6.90331 57.977 7.49816 57.977 8.12431C57.977 9.3453 58.4032 10.3628 59.2557 11.1768C60.1397 11.9908 61.2289 12.7265 62.5234 13.384C63.8179 14.0101 65.2228 14.6363 66.7383 15.2624C68.2538 15.8886 69.6587 16.6243 70.9532 17.4696C72.2476 18.2836 73.3211 19.2698 74.1736 20.4282C75.0576 21.5866 75.4996 23.0267 75.4996 24.7486C75.4996 26.1575 75.2312 27.4254 74.6945 28.5525C74.1893 29.6796 73.4474 30.6501 72.4687 31.4641C71.5215 32.2781 70.3375 32.9042 68.9168 33.3425C67.5276 33.7808 65.949 34 64.1809 34C62.9812 34 61.8446 33.9061 60.7711 33.7182C59.6977 33.5304 58.7032 33.2956 57.7876 33.0138C56.9035 32.732 56.0984 32.4346 55.3723 32.1215C54.6777 31.8085 54.1252 31.5424 53.7147 31.3232L53.7621 31.1823V23.5746H57.2666V28.7873Z" fill="black"/>
<path d="M84.716 28.7873C85.6631 29.2882 86.7208 29.7109 87.889 30.0552C89.0887 30.3683 90.2885 30.5249 91.4882 30.5249C92.5301 30.5249 93.5088 30.4309 94.4244 30.2431C95.34 30.0239 96.1293 29.6952 96.7923 29.2569C97.4869 28.7873 98.0237 28.2081 98.4025 27.5193C98.813 26.8306 99.0182 26.0166 99.0182 25.0773C99.0182 23.7937 98.5762 22.7449 97.6922 21.9309C96.8397 21.1169 95.7663 20.3969 94.4718 19.7707C93.1773 19.1446 91.7724 18.5341 90.2569 17.9392C88.7414 17.3444 87.3365 16.64 86.042 15.826C84.7475 15.012 83.6583 14.0258 82.7743 12.8674C81.9218 11.6777 81.4956 10.175 81.4956 8.35911C81.4956 7.0755 81.7482 5.91713 82.2533 4.88398C82.7901 3.85083 83.532 2.97422 84.4792 2.25414C85.4263 1.53407 86.5629 0.986186 87.889 0.610495C89.2466 0.203498 90.7463 0 92.388 0C94.2823 0 96.003 0.140884 97.5501 0.422652C99.0971 0.673111 100.328 1.01749 101.244 1.4558L101.339 1.40884V1.50276H101.386L101.339 1.64364V9.15746H97.8342V4.1326C97.0449 3.94475 96.1767 3.78821 95.2295 3.66298C94.2824 3.53775 93.272 3.47514 92.1986 3.47514C91.1567 3.47514 90.2095 3.60037 89.3571 3.85083C88.5362 4.10129 87.8258 4.44567 87.226 4.88398C86.6577 5.29097 86.2156 5.77624 85.8999 6.33978C85.5842 6.90331 85.4263 7.49816 85.4263 8.12431C85.4263 9.3453 85.8526 10.3628 86.705 11.1768C87.589 11.9908 88.6783 12.7265 89.9727 13.384C91.2672 14.0101 92.6722 14.6363 94.1876 15.2624C95.7031 15.8886 97.1081 16.6243 98.4025 17.4696C99.697 18.2836 100.77 19.2698 101.623 20.4282C102.507 21.5866 102.949 23.0267 102.949 24.7486C102.949 26.1575 102.681 27.4254 102.144 28.5525C101.639 29.6796 100.897 30.6501 99.918 31.4641C98.9708 32.2781 97.7869 32.9042 96.3661 33.3425C94.9769 33.7808 93.3983 34 91.6303 34C90.4305 34 89.2939 33.9061 88.2205 33.7182C87.147 33.5304 86.1525 33.2956 85.2369 33.0138C84.3529 32.732 83.5478 32.4346 82.8216 32.1215C82.127 31.8085 81.5745 31.5424 81.1641 31.3232L81.2114 31.1823V23.5746H84.716V28.7873Z" fill="black"/>
<path d="M109.939 30.8536C109.939 29.8517 110.224 29.0847 110.792 28.5525C111.36 27.989 112.118 27.7072 113.065 27.7072C114.075 27.7072 114.865 27.989 115.433 28.5525C116.001 29.0847 116.285 29.8517 116.285 30.8536C116.285 31.7615 116.001 32.5129 115.433 33.1077C114.865 33.7026 114.075 34 113.065 34C112.118 34 111.36 33.7026 110.792 33.1077C110.224 32.5129 109.939 31.7615 109.939 30.8536Z" fill="black"/>
<path d="M122.092 0.563534H146.718V9.15746H143.214V4.03867H136.347V29.9613H141.556V33.4365H127.207V29.9613H132.416V4.03867H125.597V9.15746H122.092V0.563534Z" fill="black"/>
<path d="M149.92 17C149.92 11.5525 150.883 7.35727 152.809 4.41436C154.767 1.47145 157.766 0 161.807 0C164.017 0 165.88 0.406998 167.396 1.22099C168.943 2.03499 170.19 3.19337 171.137 4.69613C172.084 6.16759 172.763 7.95212 173.173 10.0497C173.584 12.116 173.789 14.4328 173.789 17C173.789 22.4475 172.81 26.6427 170.853 29.5856C168.927 32.5285 165.912 34 161.807 34C159.629 34 157.782 33.593 156.266 32.779C154.751 31.965 153.52 30.8223 152.572 29.3508C151.625 27.8481 150.946 26.0635 150.536 23.9972C150.125 21.8996 149.92 19.5672 149.92 17ZM154.088 17C154.088 18.8158 154.198 20.5378 154.419 22.1657C154.672 23.7937 155.098 25.2339 155.698 26.4862C156.298 27.7072 157.087 28.6934 158.066 29.4448C159.045 30.1648 160.292 30.5249 161.807 30.5249C164.522 30.5249 166.496 29.4291 167.727 27.2376C168.99 25.046 169.621 21.6335 169.621 17C169.621 15.2155 169.495 13.5092 169.242 11.8812C169.021 10.2219 168.611 8.78177 168.011 7.56077C167.411 6.30847 166.606 5.32228 165.596 4.60221C164.586 3.85083 163.323 3.47514 161.807 3.47514C159.124 3.47514 157.166 4.58656 155.935 6.80939C154.703 9.00092 154.088 12.3978 154.088 17Z" fill="black"/>
<path d="M179.974 30.8536C179.974 29.8517 180.258 29.0847 180.827 28.5525C181.395 27.989 182.153 27.7072 183.1 27.7072C184.11 27.7072 184.9 27.989 185.468 28.5525C186.036 29.0847 186.32 29.8517 186.32 30.8536C186.32 31.7615 186.036 32.5129 185.468 33.1077C184.9 33.7026 184.11 34 183.1 34C182.153 34 181.395 33.7026 180.827 33.1077C180.258 32.5129 179.974 31.7615 179.974 30.8536Z" fill="black"/>
<path d="M194.968 0.892265C196.168 0.673111 197.542 0.500919 199.089 0.375689C200.667 0.25046 202.104 0.187846 203.398 0.187846C204.851 0.187846 206.224 0.344383 207.518 0.657458C208.844 0.970534 209.997 1.48711 210.976 2.20718C211.986 2.92726 212.791 3.86648 213.391 5.02486C213.991 6.18324 214.291 7.59208 214.291 9.25138C214.291 10.535 214.07 11.6777 213.628 12.6796C213.217 13.6501 212.696 14.4954 212.065 15.2155C211.465 15.9042 210.833 16.4678 210.17 16.9061C209.507 17.3444 208.939 17.6575 208.466 17.8453L217.227 33.4365H212.633L204.819 18.9724H198.899V33.4365H194.968V0.892265ZM203.493 3.56906C203.083 3.56906 202.656 3.56906 202.214 3.56906C201.772 3.56906 201.346 3.58471 200.936 3.61602C200.525 3.64733 200.13 3.67864 199.752 3.70994C199.404 3.74125 199.12 3.78821 198.899 3.85083V15.9669H202.593C204.772 15.9669 206.571 15.4346 207.992 14.3702C209.413 13.3057 210.123 11.6464 210.123 9.39226C210.123 7.70166 209.539 6.30847 208.371 5.21271C207.203 4.11694 205.577 3.56906 203.493 3.56906Z" fill="black"/>
<path d="M222.749 0.563534H242.214V4.03867H226.68V14.7928H241.03V18.268H226.68V29.9613H242.45V33.4365H222.749V0.563534Z" fill="black"/>
<path d="M252.235 28.7873C253.182 29.2882 254.24 29.7109 255.408 30.0552C256.608 30.3683 257.808 30.5249 259.007 30.5249C260.049 30.5249 261.028 30.4309 261.944 30.2431C262.859 30.0239 263.648 29.6952 264.311 29.2569C265.006 28.7873 265.543 28.2081 265.922 27.5193C266.332 26.8306 266.537 26.0166 266.537 25.0773C266.537 23.7937 266.095 22.7449 265.211 21.9309C264.359 21.1169 263.285 20.3969 261.991 19.7707C260.696 19.1446 259.291 18.5341 257.776 17.9392C256.26 17.3444 254.856 16.64 253.561 15.826C252.267 15.012 251.177 14.0258 250.293 12.8674C249.441 11.6777 249.015 10.175 249.015 8.35911C249.015 7.0755 249.267 5.91713 249.772 4.88398C250.309 3.85083 251.051 2.97422 251.998 2.25414C252.945 1.53407 254.082 0.986186 255.408 0.610495C256.766 0.203498 258.265 0 259.907 0C261.801 0 263.522 0.140884 265.069 0.422652C266.616 0.673111 267.848 1.01749 268.763 1.4558L268.858 1.40884V1.50276H268.905L268.858 1.64364V9.15746H265.353V4.1326C264.564 3.94475 263.696 3.78821 262.749 3.66298C261.801 3.53775 260.791 3.47514 259.718 3.47514C258.676 3.47514 257.729 3.60037 256.876 3.85083C256.055 4.10129 255.345 4.44567 254.745 4.88398C254.177 5.29097 253.735 5.77624 253.419 6.33978C253.103 6.90331 252.945 7.49816 252.945 8.12431C252.945 9.3453 253.372 10.3628 254.224 11.1768C255.108 11.9908 256.197 12.7265 257.492 13.384C258.786 14.0101 260.191 14.6363 261.707 15.2624C263.222 15.8886 264.627 16.6243 265.922 17.4696C267.216 18.2836 268.29 19.2698 269.142 20.4282C270.026 21.5866 270.468 23.0267 270.468 24.7486C270.468 26.1575 270.2 27.4254 269.663 28.5525C269.158 29.6796 268.416 30.6501 267.437 31.4641C266.49 32.2781 265.306 32.9042 263.885 33.3425C262.496 33.7808 260.917 34 259.149 34C257.95 34 256.813 33.9061 255.74 33.7182C254.666 33.5304 253.672 33.2956 252.756 33.0138C251.872 32.732 251.067 32.4346 250.341 32.1215C249.646 31.8085 249.094 31.5424 248.683 31.3232L248.731 31.1823V23.5746H252.235V28.7873Z" fill="black"/>
<path d="M294.365 0.563534H298.154V22.4945C298.154 24.4669 297.886 26.1731 297.349 27.6133C296.844 29.0534 296.118 30.2431 295.171 31.1823C294.223 32.0902 293.071 32.7634 291.713 33.2017C290.356 33.64 288.856 33.8591 287.214 33.8591C283.299 33.8591 280.347 32.9825 278.358 31.2293C276.401 29.4761 275.422 26.8149 275.422 23.2459V0.563534H279.353V21.4144C279.353 23.0737 279.511 24.4825 279.826 25.6409C280.174 26.768 280.663 27.6915 281.295 28.4116C281.958 29.1004 282.778 29.6013 283.757 29.9144C284.768 30.2274 285.936 30.384 287.262 30.384C289.819 30.384 291.634 29.6952 292.708 28.3177C293.813 26.9088 294.365 24.6077 294.365 21.4144V0.563534Z" fill="black"/>
<path d="M304.292 0.563534H308.223V29.9613H321.625V21.7901H325.13V33.4365H304.292V0.563534Z" fill="black"/>
<path d="M329.374 0.563534H354V9.15746H350.495V4.03867H343.629V29.9613H348.838V33.4365H334.488V29.9613H339.698V4.03867H332.878V9.15746H329.374V0.563534Z" fill="black"/>
</svg>
