<svg width="354" height="34" viewBox="0 0 354 34" fill="none" xmlns="http://www.w3.org/2000/svg">
<path d="M3.46474 28.7873C4.38867 29.2882 5.42039 29.7109 6.5599 30.0552C7.73021 30.3683 8.90052 30.5249 10.0708 30.5249C11.0872 30.5249 12.0419 30.4309 12.935 30.2431C13.8281 30.0239 14.5981 29.6952 15.2448 29.2569C15.9224 28.7873 16.4459 28.2081 16.8155 27.5193C17.2159 26.8306 17.4161 26.0166 17.4161 25.0773C17.4161 23.7937 16.9849 22.7449 16.1226 21.9309C15.291 21.1169 14.2439 20.3969 12.9812 19.7707C11.7185 19.1446 10.348 18.5341 8.86972 17.9392C7.39144 17.3444 6.02094 16.64 4.75824 15.826C3.49553 15.012 2.43301 14.0258 1.57068 12.8674C0.739144 11.6777 0.323375 10.175 0.323375 8.35911C0.323375 7.0755 0.569757 5.91713 1.06252 4.88398C1.58608 3.85083 2.30982 2.97422 3.23375 2.25414C4.15768 1.53407 5.2664 0.986186 6.5599 0.610495C7.8842 0.203498 9.34709 0 10.9486 0C12.7964 0 14.4749 0.140884 15.984 0.422652C17.4931 0.673111 18.6942 1.01749 19.5873 1.4558L19.6797 1.40884V1.50276H19.7259L19.6797 1.64364V9.15746H16.2612V4.1326C15.4912 3.94475 14.6443 3.78821 13.7204 3.66298C12.7964 3.53775 11.8109 3.47514 10.7638 3.47514C9.74746 3.47514 8.82353 3.60037 7.99199 3.85083C7.19125 4.10129 6.4983 4.44567 5.91315 4.88398C5.35879 5.29097 4.92762 5.77624 4.61965 6.33978C4.31167 6.90331 4.15768 7.49816 4.15768 8.12431C4.15768 9.3453 4.57345 10.3628 5.40499 11.1768C6.26732 11.9908 7.32984 12.7265 8.59254 13.384C9.85525 14.0101 11.2257 14.6363 12.704 15.2624C14.1823 15.8886 15.5528 16.6243 16.8155 17.4696C18.0782 18.2836 19.1253 19.2698 19.9569 20.4282C20.8192 21.5866 21.2504 23.0267 21.2504 24.7486C21.2504 26.1575 20.9886 27.4254 20.465 28.5525C19.9723 29.6796 19.2485 30.6501 18.2938 31.4641C17.3699 32.2781 16.215 32.9042 14.8291 33.3425C13.474 33.7808 11.9341 34 10.2094 34C9.03911 34 7.9304 33.9061 6.88328 33.7182C5.83615 33.5304 4.86603 33.2956 3.9729 33.0138C3.11056 32.732 2.32522 32.4346 1.61688 32.1215C0.939329 31.8085 0.40037 31.5424 0 31.3232L0.0461966 31.1823V23.5746H3.46474V28.7873Z" fill="black"/>
<path d="M44.423 18.3619H29.9173V33.4365H26.083V0.563534H29.9173V14.8867H44.423V0.563534H48.2573V33.4365H44.423V18.3619Z" fill="black"/>
<path d="M52.3045 17C52.3045 11.5525 53.2438 7.35727 55.1225 4.41436C57.032 1.47145 59.9577 0 63.8998 0C66.0557 0 67.8727 0.406998 69.351 1.22099C70.8601 2.03499 72.0766 3.19337 73.0005 4.69613C73.9245 6.16759 74.5866 7.95212 74.987 10.0497C75.3874 12.116 75.5875 14.4328 75.5875 17C75.5875 22.4475 74.6328 26.6427 72.7234 29.5856C70.8447 32.5285 67.9035 34 63.8998 34C61.7748 34 59.9731 33.593 58.4948 32.779C57.0166 31.965 55.8155 30.8223 54.8915 29.3508C53.9676 27.8481 53.3054 26.0635 52.9051 23.9972C52.5047 21.8996 52.3045 19.5672 52.3045 17ZM56.3698 17C56.3698 18.8158 56.4776 20.5378 56.6932 22.1657C56.9396 23.7937 57.3553 25.2339 57.9405 26.4862C58.5256 27.7072 59.2956 28.6934 60.2503 29.4448C61.205 30.1648 62.4215 30.5249 63.8998 30.5249C66.5484 30.5249 68.4733 29.4291 69.6744 27.2376C70.9063 25.046 71.5223 21.6335 71.5223 17C71.5223 15.2155 71.3991 13.5092 71.1527 11.8812C70.9371 10.2219 70.5367 8.78177 69.9516 7.56077C69.3664 6.30847 68.5811 5.32228 67.5956 4.60221C66.61 3.85083 65.3781 3.47514 63.8998 3.47514C61.282 3.47514 59.3726 4.58656 58.1715 6.80939C56.9704 9.00092 56.3698 12.3978 56.3698 17Z" fill="black"/>
<path d="M81.4826 0.892265C82.653 0.673111 83.9927 0.500919 85.5017 0.375689C87.0416 0.25046 88.4429 0.187846 89.7056 0.187846C91.1223 0.187846 92.462 0.344383 93.7247 0.657458C95.0182 0.970534 96.1423 1.48711 97.0971 2.20718C98.0826 2.92726 98.8679 3.86648 99.4531 5.02486C100.038 6.18324 100.331 7.59208 100.331 9.25138C100.331 10.535 100.115 11.6777 99.6841 12.6796C99.2837 13.6501 98.7755 14.4954 98.1596 15.2155C97.5744 15.9042 96.9585 16.4678 96.3117 16.9061C95.665 17.3444 95.1106 17.6575 94.6486 17.8453L103.195 33.4365H98.7139L91.0915 18.9724H85.317V33.4365H81.4826V0.892265ZM89.798 3.56906C89.3976 3.56906 88.9819 3.56906 88.5507 3.56906C88.1195 3.56906 87.7038 3.58471 87.3034 3.61602C86.903 3.64733 86.5181 3.67864 86.1485 3.70994C85.8097 3.74125 85.5325 3.78821 85.317 3.85083V15.9669H88.9203C91.0453 15.9669 92.8008 15.4346 94.1867 14.3702C95.5726 13.3057 96.2655 11.6464 96.2655 9.39226C96.2655 7.70166 95.6958 6.30847 94.5563 5.21271C93.4167 4.11694 91.8307 3.56906 89.798 3.56906Z" fill="black"/>
<path d="M105.487 0.563534H129.509V9.15746H126.09V4.03867H119.392V29.9613H124.474V33.4365H110.476V29.9613H115.558V4.03867H108.905V9.15746H105.487V0.563534Z" fill="black"/>
<path d="M132.401 30.8536C132.401 29.8517 132.678 29.0847 133.233 28.5525C133.787 27.989 134.526 27.7072 135.45 27.7072C136.436 27.7072 137.206 27.989 137.76 28.5525C138.314 29.0847 138.592 29.8517 138.592 30.8536C138.592 31.7615 138.314 32.5129 137.76 33.1077C137.206 33.7026 136.436 34 135.45 34C134.526 34 133.787 33.7026 133.233 33.1077C132.678 32.5129 132.401 31.7615 132.401 30.8536Z" fill="black"/>
<path d="M163.566 4.1326C163.042 3.91344 162.457 3.75691 161.81 3.66298C161.194 3.53775 160.44 3.47514 159.547 3.47514C158.284 3.47514 157.037 3.70994 155.805 4.17956C154.604 4.64917 153.526 5.41621 152.571 6.48066C151.647 7.54512 150.893 8.9383 150.307 10.6602C149.753 12.3821 149.476 14.4954 149.476 17C149.476 19.2541 149.722 21.2265 150.215 22.9171C150.739 24.6077 151.447 26.0166 152.34 27.1436C153.264 28.2707 154.357 29.116 155.62 29.6796C156.914 30.2431 158.346 30.5249 159.916 30.5249C160.717 30.5249 161.456 30.4622 162.134 30.337C162.842 30.1805 163.489 29.977 164.074 29.7265V25.0304H167.493V31.3702L167.539 31.4641C166.615 32.1842 165.445 32.7947 164.028 33.2956C162.611 33.7652 160.886 34 158.854 34C156.914 34 155.112 33.6713 153.449 33.0138C151.817 32.325 150.4 31.2919 149.199 29.9144C147.998 28.5368 147.058 26.7836 146.381 24.6547C145.734 22.4945 145.411 19.9429 145.411 17C145.411 13.9319 145.78 11.3333 146.519 9.20442C147.258 7.0442 148.259 5.29097 149.522 3.94475C150.785 2.56722 152.248 1.56538 153.911 0.939226C155.605 0.313075 157.406 0 159.316 0C160.363 0 161.271 0.0469607 162.041 0.140882C162.811 0.203498 163.489 0.313075 164.074 0.469613C164.659 0.594843 165.167 0.767034 165.598 0.986186C166.06 1.20534 166.507 1.4558 166.938 1.73757H166.984V9.15746H163.566V4.1326Z" fill="black"/>
<path d="M173.803 0.892265C174.974 0.673111 176.313 0.500919 177.823 0.375689C179.362 0.25046 180.764 0.187846 182.026 0.187846C183.443 0.187846 184.783 0.344383 186.045 0.657458C187.339 0.970534 188.463 1.48711 189.418 2.20718C190.403 2.92726 191.189 3.86648 191.774 5.02486C192.359 6.18324 192.652 7.59208 192.652 9.25138C192.652 10.535 192.436 11.6777 192.005 12.6796C191.604 13.6501 191.096 14.4954 190.48 15.2155C189.895 15.9042 189.279 16.4678 188.632 16.9061C187.986 17.3444 187.431 17.6575 186.969 17.8453L195.516 33.4365H191.035L183.412 18.9724H177.638V33.4365H173.803V0.892265ZM182.119 3.56906C181.718 3.56906 181.303 3.56906 180.871 3.56906C180.44 3.56906 180.025 3.58471 179.624 3.61602C179.224 3.64733 178.839 3.67864 178.469 3.70994C178.13 3.74125 177.853 3.78821 177.638 3.85083V15.9669H181.241C183.366 15.9669 185.122 15.4346 186.507 14.3702C187.893 13.3057 188.586 11.6464 188.586 9.39226C188.586 7.70166 188.017 6.30847 186.877 5.21271C185.738 4.11694 184.151 3.56906 182.119 3.56906Z" fill="black"/>
<path d="M200.903 0.563534H219.889V4.03867H204.737V14.7928H218.735V18.268H204.737V29.9613H220.12V33.4365H200.903V0.563534Z" fill="black"/>
<path d="M242.646 24.326H230.219L227.263 33.4365H223.475L234.285 0.563534H238.812L249.714 33.4365H245.695L242.646 24.326ZM231.421 20.9447H241.584L236.826 5.49447H236.271L231.421 20.9447Z" fill="black"/>
<path d="M251.359 0.563534H275.382V9.15746H271.963V4.03867H265.264V29.9613H270.346V33.4365H256.349V29.9613H261.43V4.03867H254.778V9.15746H251.359V0.563534Z" fill="black"/>
<path d="M279.059 0.563534H301.234V4.03867H292.04V29.9613H301.234V33.4365H279.059V29.9613H288.206V4.03867H279.059V0.563534Z" fill="black"/>
<path d="M317.015 28.5994H317.523L326.3 0.563534H330.134L319.278 33.4365H314.797L303.71 0.563534H307.914L317.015 28.5994Z" fill="black"/>
<path d="M334.782 0.563534H353.769V4.03867H338.617V14.7928H352.614V18.268H338.617V29.9613H354V33.4365H334.782V0.563534Z" fill="black"/>
</svg>
